<svg width="105" height="42" viewBox="0 0 105 42" fill="none" xmlns="http://www.w3.org/2000/svg">
<circle cx="28.93" cy="20.6644" r="18.6644" stroke="#263D83" stroke-width="4"/>
<path fill-rule="evenodd" clip-rule="evenodd" d="M28.8935 30.0623C28.9198 30.0624 28.9461 30.0624 28.9723 30.0623C28.9585 30.0624 28.9447 30.0624 28.9308 30.0624C28.9184 30.0624 28.9059 30.0624 28.8935 30.0623ZM37.9972 18.1777C36.9071 14.1934 33.261 11.2652 28.9308 11.2652L28.9308 8.26516C35.7727 8.26516 41.3202 13.8069 41.3295 20.6466C41.3293 20.5563 41.3282 20.4659 41.3261 20.3756C41.3028 19.3704 41.1571 18.366 40.8881 17.385L37.9972 18.1777ZM41.3295 20.6758C41.3295 20.6661 41.3295 20.6563 41.3295 20.6466C41.3295 20.6523 41.3295 20.6581 41.3295 20.6638C41.3295 20.6678 41.3295 20.6718 41.3295 20.6758ZM28.9856 33.0623C31.4344 33.0515 33.8288 32.3155 35.8642 30.9426C38.0144 29.4922 39.6557 27.404 40.5569 24.9719C41.0695 23.5886 41.328 22.1336 41.3295 20.6758C41.323 27.4996 35.804 33.0328 28.9856 33.0623ZM28.8816 33.0623C28.7779 33.0619 28.6742 33.0602 28.5704 33.0572C25.9778 32.9818 23.4741 32.0952 21.4118 30.5223C19.3495 28.9493 17.8323 26.7692 17.074 24.2889C16.7134 23.1093 16.533 21.89 16.5322 20.6713C16.5322 20.6662 16.5322 20.6612 16.5322 20.6562C16.5331 19.3173 16.7507 17.9793 17.1844 16.6955C17.7811 14.9293 18.765 13.3296 20.0537 12.008C17.8764 14.2407 16.5342 17.2917 16.5322 20.6562C16.5322 20.6587 16.5322 20.6613 16.5322 20.6638C16.5322 20.6663 16.5322 20.6688 16.5322 20.6713C16.5363 27.499 22.0591 33.0358 28.8816 33.0623ZM20.4009 11.6657C22.6234 9.55808 25.6262 8.26516 28.9308 8.26516C27.9136 8.26516 26.9065 8.39027 25.9308 8.63358C24.4188 9.01067 22.9824 9.67167 21.7016 10.5909C21.2422 10.9206 20.8079 11.2799 20.4009 11.6657Z" fill="#263D83"/>
<path fill-rule="evenodd" clip-rule="evenodd" d="M75.7319 30.0623C75.7581 30.0624 75.7844 30.0624 75.8107 30.0623C75.7969 30.0624 75.7831 30.0624 75.7692 30.0624C75.7568 30.0624 75.7443 30.0624 75.7319 30.0623ZM84.8355 18.1777C83.7455 14.1934 80.0993 11.2652 75.7692 11.2652L75.7692 8.26516C82.6111 8.26516 88.1586 13.8069 88.1678 20.6466C88.1677 20.5563 88.1666 20.4659 88.1645 20.3756C88.1411 19.3704 87.9955 18.366 87.7265 17.385L84.8355 18.1777ZM88.1678 20.6758C88.1679 20.6661 88.1679 20.6563 88.1678 20.6466C88.1678 20.6523 88.1679 20.6581 88.1679 20.6638C88.1679 20.6678 88.1678 20.6718 88.1678 20.6758ZM75.8239 33.0623C78.2728 33.0515 80.6672 32.3155 82.7026 30.9426C84.8528 29.4922 86.4941 27.404 87.3953 24.9719C87.9079 23.5886 88.1664 22.1336 88.1678 20.6758C88.1614 27.4996 82.6423 33.0328 75.8239 33.0623ZM75.7199 33.0623C75.6163 33.0619 75.5125 33.0602 75.4087 33.0572C72.8161 32.9818 70.3125 32.0952 68.2501 30.5223C66.1878 28.9493 64.6707 26.7692 63.9124 24.2889C63.5517 23.1093 63.3713 21.89 63.3706 20.6713C63.3706 20.6662 63.3706 20.6612 63.3706 20.6562C63.3714 19.3173 63.5891 17.9793 64.0228 16.6955C64.6195 14.9293 65.6034 13.3296 66.8921 12.008C64.7147 14.2407 63.3726 17.2917 63.3706 20.6562C63.3706 20.6587 63.3706 20.6613 63.3706 20.6638C63.3706 20.6663 63.3706 20.6688 63.3706 20.6713C63.3746 27.499 68.8975 33.0358 75.7199 33.0623ZM67.2393 11.6657C69.4618 9.55808 72.4645 8.26516 75.7692 8.26516C74.752 8.26516 73.7449 8.39027 72.7692 8.63358C71.2571 9.01067 69.8207 9.67167 68.54 10.5909C68.0806 10.9206 67.6463 11.2799 67.2393 11.6657Z" fill="#263D83"/>
<circle cx="75.7693" cy="20.6644" r="18.6644" stroke="#263D83" stroke-width="4"/>
<path d="M0 20.6644H9.64337" stroke="#263D83" stroke-width="4"/>
<path d="M95.0562 20.6644H104.7" stroke="#263D83" stroke-width="4"/>
<path d="M46.8394 20.6644H56.4827" stroke="#263D83" stroke-width="4"/>
</svg>
