<svg width="33" height="33" viewBox="0 0 33 33" fill="none" xmlns="http://www.w3.org/2000/svg">
<path d="M23.7614 19.7007C23.3533 19.5074 21.3987 18.5409 21.0336 18.3905C20.6684 18.2402 20.4107 18.1972 20.1315 18.6053C19.8522 19.0134 19.1005 19.8941 18.8642 20.1733C18.628 20.4525 18.4132 20.474 18.0051 20.1733C16.8329 19.7029 15.7504 19.0345 14.8048 18.1972C13.9487 17.3913 13.224 16.4564 12.6569 15.4265C12.4206 15.0399 12.6569 14.8251 12.8287 14.6103C13.0005 14.3955 13.2153 14.1592 13.4301 13.923C13.5872 13.7186 13.7171 13.4948 13.8167 13.2571C13.87 13.1466 13.8977 13.0255 13.8977 12.9027C13.8977 12.78 13.87 12.6589 13.8167 12.5483C13.8167 12.355 12.9146 10.4005 12.571 9.60575C12.2273 8.81104 11.9266 8.91844 11.6903 8.91844H10.8312C10.4219 8.93439 10.0357 9.11206 9.75726 9.41245C9.30783 9.84132 8.95184 10.3584 8.7116 10.9313C8.47136 11.5042 8.35205 12.1205 8.36114 12.7416C8.471 14.2666 9.03172 15.7245 9.97204 16.93C11.6976 19.4933 14.0583 21.5654 16.8238 22.944C17.7688 23.3521 18.4991 23.5884 19.079 23.7817C19.8934 24.0278 20.7541 24.0793 21.592 23.9321C22.1485 23.8192 22.6759 23.5931 23.1414 23.268C23.607 22.9429 24.0008 22.5255 24.2983 22.0419C24.546 21.4447 24.6276 20.7916 24.5346 20.1518C24.4272 20.0014 24.1695 19.8941 23.7614 19.7007Z" fill="white"/>
<path d="M27.778 5.07365C26.2926 3.57419 24.5219 2.38736 22.5705 1.58318C20.619 0.778992 18.5263 0.37373 16.4157 0.391295C13.6198 0.405926 10.8767 1.15386 8.46032 2.56039C6.04393 3.96692 4.03886 5.98282 2.64538 8.40675C1.25189 10.8307 0.51875 13.5778 0.519188 16.3737C0.519626 19.1697 1.25362 21.9166 2.64787 24.3401L0.5 32.6094L8.96261 30.4615C11.3021 31.7345 13.9241 32.3993 16.5876 32.3946H16.4157C19.5901 32.4153 22.6987 31.49 25.3451 29.7369C27.9916 27.9838 30.0559 25.4822 31.2749 22.5511C32.4939 19.62 32.8122 16.3923 32.1894 13.2795C31.5666 10.1668 30.0309 7.31007 27.778 5.07365ZM16.4157 29.6453C14.0328 29.6472 11.6941 29.0013 9.64993 27.7766L9.1774 27.4974L4.15138 28.8076L5.48306 23.9105L5.18236 23.4165C3.46697 20.654 2.82531 17.3579 3.37911 14.1536C3.93291 10.9493 5.64365 8.05981 8.18673 6.03329C10.7298 4.00677 13.9283 2.98425 17.1753 3.15972C20.4224 3.3352 23.492 4.69647 25.8019 6.98526C27.0403 8.21361 28.0217 9.67613 28.6892 11.2876C29.3566 12.8991 29.6967 14.6272 29.6896 16.3715C29.6839 19.8902 28.2836 23.2631 25.7955 25.7512C23.3074 28.2393 19.9344 29.6396 16.4157 29.6453Z" fill="white"/>
</svg>
